HIERARCHY
ROOT Hips
{
	OFFSET 0.00000 0.00000 0.00000
	CHANNELS 6 Xposition Yposition Zposition Zrotation Yrotation Xrotation 
	JOINT LHipJoint
	{
		OFFSET 0 0 0
		CHANNELS 3 Zrotation Yrotation Xrotation
		JOINT LeftUpLeg
		{
			OFFSET 1.62964 -1.40469 0.78906
			CHANNELS 3 Zrotation Yrotation Xrotation
			JOINT LeftLeg
			{
				OFFSET 2.29640 -6.30932 0.00000
				CHANNELS 3 Zrotation Yrotation Xrotation
				JOINT LeftFoot
				{
					OFFSET 2.29451 -6.30412 0.00000
					CHANNELS 3 Zrotation Yrotation Xrotation
					JOINT LeftToeBase
					{
						OFFSET 0.03611 -0.09921 1.56387
						CHANNELS 3 Zrotation Yrotation Xrotation
						End Site
						{
							OFFSET 0.00000 -0.00000 0.80291
						}
					}
				}
			}
		}
	}
	JOINT RHipJoint
	{
		OFFSET 0 0 0
		CHANNELS 3 Zrotation Yrotation Xrotation
		JOINT RightUpLeg
		{
			OFFSET -1.73712 -1.40469 0.78906
			CHANNELS 3 Zrotation Yrotation Xrotation
			JOINT RightLeg
			{
				OFFSET -2.28137 -6.26801 0.00000
				CHANNELS 3 Zrotation Yrotation Xrotation
				JOINT RightFoot
				{
					OFFSET -2.28681 -6.28298 0.00000
					CHANNELS 3 Zrotation Yrotation Xrotation
					JOINT RightToeBase
					{
						OFFSET -0.15927 -0.43759 1.61103
						CHANNELS 3 Zrotation Yrotation Xrotation
						End Site
						{
							OFFSET -0.00000 -0.00000 0.84630
						}
					}
				}
			}
		}
	}
	JOINT LowerBack
	{
		OFFSET 0 0 0
		CHANNELS 3 Zrotation Yrotation Xrotation
		JOINT Spine
		{
			OFFSET -0.04227 2.04338 -0.00225
			CHANNELS 3 Zrotation Yrotation Xrotation
			JOINT Spine1
			{
				OFFSET -0.02148 2.04482 -0.04273
				CHANNELS 3 Zrotation Yrotation Xrotation
				JOINT Neck
				{
					OFFSET 0 0 0
					CHANNELS 3 Zrotation Yrotation Xrotation
					JOINT Neck1
					{
						OFFSET 0.09180 1.44629 0.19359
						CHANNELS 3 Zrotation Yrotation Xrotation
						JOINT Head
						{
							OFFSET 0.00887 1.40645 0.14750
							CHANNELS 3 Zrotation Yrotation Xrotation
							End Site
							{
								OFFSET -0.00669 1.50671 0.03707
							}
						}
					}
				}
				JOINT LeftShoulder
				{
					OFFSET 0 0 0
					CHANNELS 3 Zrotation Yrotation Xrotation
					JOINT LeftArm
					{
						OFFSET 2.17674 1.86763 -0.06520
						CHANNELS 3 Zrotation Yrotation Xrotation
						JOINT LeftForeArm
						{
							OFFSET 4.65776 -0.00000 0.00000
							CHANNELS 3 Zrotation Yrotation Xrotation
							JOINT LeftHand
							{
								OFFSET 3.55539 -0.00000 0.00000
								CHANNELS 3 Zrotation Yrotation Xrotation
								JOINT LeftFingerBase
								{
									OFFSET 0 0 0
									CHANNELS 3 Zrotation Yrotation Xrotation
									JOINT LeftHandIndex1
									{
										OFFSET 0.70726 -0.00000 0.00000
										CHANNELS 3 Zrotation Yrotation Xrotation
										End Site
										{
											OFFSET 0.57022 -0.00000 0.00000
										}
									}
								}
								JOINT LThumb
								{
									OFFSET 0 0 0
									CHANNELS 3 Zrotation Yrotation Xrotation
									End Site
									{
										OFFSET 0.57892 -0.00000 0.57892
									}
								}
							}
						}
					}
				}
				JOINT RightShoulder
				{
					OFFSET 0 0 0
					CHANNELS 3 Zrotation Yrotation Xrotation
					JOINT RightArm
					{
						OFFSET -2.80694 1.55459 -0.32496
						CHANNELS 3 Zrotation Yrotation Xrotation
						JOINT RightForeArm
						{
							OFFSET -4.71925 -0.00000 -0.00000
							CHANNELS 3 Zrotation Yrotation Xrotation
							JOINT RightHand
							{
								OFFSET -3.56990 -0.00000 0.00000
								CHANNELS 3 Zrotation Yrotation Xrotation
								JOINT RightFingerBase
								{
									OFFSET 0 0 0
									CHANNELS 3 Zrotation Yrotation Xrotation
									JOINT RightHandIndex1
									{
										OFFSET -0.50776 -0.00000 0.00000
										CHANNELS 3 Zrotation Yrotation Xrotation
										End Site
										{
											OFFSET -0.40937 -0.00000 0.00000
										}
									}
								}
								JOINT RThumb
								{
									OFFSET 0 0 0
									CHANNELS 3 Zrotation Yrotation Xrotation
									End Site
									{
										OFFSET -0.41562 -0.00000 0.41562
									}
								}
							}
						}
					}
				}
			}
		}
	}
}
MOTION
Frames: 11
Frame Time: .0083333
-1.1368 17.9817 21.0038 0 0 0 0 0 0 -21 0 0 0 0 0 0 0 0 0 0 0 0 0 0 21 0 0 0 0 0 0 0 0 0 0 0 0 0 0 0 0 0 0 0 0 0 0 -16 0 0 21 0 0 11 0 0 0 -8 0 0 0 0 0 0 0 0 0 0 0 0 0 0 0 0 0 0 0 0 8 0 0 0 0 0 0 0 0 0 0 0 0 0 0 0 0 0
-1.1368 17.9817 21.0038 174.8020 3.1779 -157.0060 0.0000 0.0000 0.0000 -27.1289 -12.5067 -17.3724 0.1049 2.0886 5.7505 0.0933 -4.1912 -5.7694 4.1052 -12.2991 -36.7985 0.0000 0.0000 0.0000 14.0247 13.4392 -18.6370 -0.1476 -2.4761 6.8233 -0.9232 3.9176 -17.2647 -4.2237 12.4523 -37.3515 -9.9445 -3.8457 -23.7214 -1.3048 -1.7552 0.7702 3.5821 -1.3413 14.6174 -2.8491 -5.3424 -3.1338 3.3326 -6.2522 22.7758 1.1801 -2.3439 7.7125 0.0000 0.0000 0.0000 -84.3797 -2.2471 19.6415 11.9994 -19.8038 -2.1021 -0.0000 -0.0000 4.2451 23.2488 -12.3476 -5.2489 -7.1250 0.0000 -0.0000 -2.7671 16.5890 1.8641 0.0000 0.0000 0.0000 91.7464 -4.5923 13.9576 -18.3557 28.6102 -4.7183 0.0000 -0.0000 -1.8098 -11.2984 -59.1732 9.7351 7.1250 -0.0000 -0.0000 91.7618 -75.9559 -77.3374
-1.1355 17.9805 21.0020 175.0640 3.1546 -156.8600 0.0000 0.0000 0.0000 -26.7352 -12.8154 -17.4621 0.1111 2.1494 5.9187 0.1032 -4.0006 -5.9574 3.7325 -11.7957 -35.0129 0.0000 0.0000 0.0000 14.2898 13.7284 -18.6983 -0.1466 -2.4670 6.7982 -0.8833 3.6642 -16.9049 -4.3718 12.6393 -38.0329 -9.5826 -3.7588 -23.8848 -1.3542 -1.7120 0.6620 3.3363 -1.2819 14.5571 -2.6205 -5.4245 -2.8634 3.2484 -6.3660 22.6684 1.1124 -2.3878 7.6212 -0.0000 -0.0000 0.0000 -84.1519 -1.9718 20.1181 12.1449 -20.0215 -2.1516 -0.0000 -0.0000 3.8071 23.5029 -12.1951 -5.2486 -7.1250 0.0000 -0.0000 -2.5830 16.7275 1.7320 -0.0000 -0.0000 0.0000 92.0192 -4.8185 13.7313 -18.4577 28.7393 -4.7673 0.0000 -0.0000 -1.8435 -12.1205 -58.6453 10.3922 7.1250 -0.0000 -0.0000 89.8155 -76.2987 -75.6995
-1.1329 17.9803 20.9990 175.2610 3.1282 -156.7280 0.0000 0.0000 0.0000 -26.4682 -12.8295 -17.6153 0.1122 2.1601 5.9483 0.1019 -3.9070 -5.9043 3.9390 -12.0788 -36.0113 0.0000 0.0000 0.0000 14.5090 13.8383 -18.8012 -0.1475 -2.4746 6.8194 -0.9093 3.7876 -17.1450 -4.1699 12.3831 -37.1012 -9.3024 -3.6738 -24.0552 -1.4083 -1.6455 0.5663 3.1392 -1.2190 14.5170 -2.3854 -5.5120 -2.5713 3.1224 -6.4770 22.5474 1.0313 -2.4339 7.5197 -0.0000 0.0000 0.0000 -83.9668 -1.7912 20.4005 12.2043 -20.1103 -2.1720 -0.0000 -0.0000 3.6905 23.5804 -12.2943 -5.3099 -7.1250 0.0000 -0.0000 -2.5342 16.6126 1.7056 -0.0000 0.0000 0.0000 92.2494 -5.0227 13.6130 -18.5249 28.8241 -4.7996 0.0000 -0.0000 -2.0701 -13.4659 -57.9055 11.4672 7.1250 -0.0000 -0.0000 87.0023 -76.8318 -73.4109
-1.1308 17.9796 20.9968 175.4940 3.0976 -156.5310 0.0000 0.0000 0.0000 -26.1388 -12.8989 -17.8435 0.1141 2.1777 5.9969 0.1043 -3.7722 -5.9315 4.1384 -12.3423 -36.9539 0.0000 0.0000 0.0000 14.7572 13.9571 -18.9960 -0.1504 -2.4992 6.8874 -0.9172 3.8248 -17.2175 -4.1392 12.3433 -36.9576 -8.9780 -3.6012 -24.3259 -1.4508 -1.5979 0.4734 2.9211 -1.1639 14.5392 -2.1265 -5.7465 -2.2899 3.0210 -6.7901 22.5395 0.9398 -2.5668 7.4637 -0.0000 -0.0000 0.0000 -83.7894 -1.6327 20.5948 12.2515 -20.1808 -2.1883 -0.0000 -0.0000 3.6315 23.6241 -12.4526 -5.3879 -7.1250 0.0000 -0.0000 -2.5121 16.4370 1.7003 -0.0000 -0.0000 0.0000 92.4547 -5.2143 13.5990 -18.5812 28.8949 -4.8268 0.0000 -0.0000 -2.2332 -14.7074 -57.1700 12.4381 7.1250 -0.0000 -0.0000 84.0231 -77.3126 -70.9398
-1.1298 17.9795 20.9959 175.7370 3.0564 -156.2730 0.0000 0.0000 0.0000 -25.7518 -13.1478 -18.1234 0.1179 2.2139 6.0973 0.1096 -3.5965 -6.0253 3.9607 -12.1080 -36.1150 0.0000 0.0000 0.0000 14.9910 14.1180 -19.2693 -0.1525 -2.5164 6.9352 -0.9041 3.8138 -17.0906 -4.0845 12.2720 -36.7011 -8.7917 -3.5312 -24.7837 -1.4255 -1.5030 0.4012 2.8722 -1.1065 14.6945 -1.7198 -5.9790 -1.7023 2.7866 -7.1076 22.0690 0.7911 -2.7260 7.1894 0.0000 0.0000 0.0000 -83.6458 -1.4894 21.2715 12.3353 -20.3057 -2.2173 -0.0000 -0.0000 3.1497 23.6815 -12.4671 -5.4087 -7.1250 0.0000 -0.0000 -2.4731 16.4153 1.6750 0.0000 0.0000 0.0000 92.6145 -5.4084 13.3793 -18.6599 28.9939 -4.8649 0.0000 -0.0000 -2.2001 -16.4367 -55.9213 13.7312 7.1250 -0.0000 -0.0000 78.5225 -77.9428 -66.1988
-1.1294 17.9805 20.9937 175.9760 2.9992 -156.0580 0.0000 0.0000 0.0000 -25.3883 -13.3303 -18.3608 0.1210 2.2423 6.1759 0.1127 -3.4785 -6.0791 3.8247 -11.9235 -35.4618 0.0000 0.0000 0.0000 15.2386 14.1900 -19.5171 -0.1538 -2.5267 6.9636 -0.8860 3.9086 -16.9014 -3.9430 12.0842 -36.0303 -9.0036 -3.6126 -25.3350 -0.9346 -1.5659 0.9193 3.3782 -1.1963 14.8934 -1.8277 -6.0837 -1.7679 2.3524 -7.2179 21.6486 0.6588 -2.8581 7.0542 0.0000 -0.0000 0.0000 -84.2409 -1.9535 21.5629 12.3047 -20.2600 -2.2067 -0.0000 -0.0000 2.9057 23.9536 -12.4995 -5.4922 -7.1250 0.0000 -0.0000 -2.2864 16.3516 1.5515 0.0000 -0.0000 0.0000 92.0056 -5.0172 13.3930 -18.6417 28.9710 -4.8561 0.0000 -0.0000 -2.2018 -18.1681 -54.3727 14.9354 7.1250 -0.0000 -0.0000 71.0850 -78.4510 -59.6014
-1.1287 17.9813 20.9899 176.2290 2.8893 -155.8770 0.0000 0.0000 0.0000 -25.0042 -13.4515 -18.5429 0.1232 2.2632 6.2335 0.1139 -3.4610 -6.1050 3.8005 -11.8901 -35.3444 0.0000 0.0000 0.0000 15.5346 14.2313 -19.7102 -0.1565 -2.5490 7.0256 -0.8873 3.9754 -16.9073 -3.8715 11.9874 -35.6876 -8.7015 -3.5870 -25.6247 -0.8559 -1.6063 0.9255 3.2778 -1.2010 15.0470 -1.7193 -6.1341 -1.7643 2.0670 -7.2596 21.5237 0.5468 -2.9028 6.9985 -0.0000 0.0000 0.0000 -84.3041 -2.1187 21.5785 12.2453 -20.1715 -2.1861 -0.0000 -0.0000 2.9521 24.0270 -12.5998 -5.5543 -7.1250 0.0000 -0.0000 -2.2413 16.2351 1.5265 -0.0000 0.0000 0.0000 92.0154 -4.9778 13.2701 -18.6553 28.9881 -4.8627 0.0000 -0.0000 -2.0401 -17.9821 -53.8627 14.6884 7.1250 -0.0000 -0.0000 68.6327 -78.2836 -57.1165
-1.1284 17.9819 20.9854 176.4500 2.7599 -155.7040 0.0000 0.0000 0.0000 -24.6759 -13.5060 -18.7327 0.1251 2.2804 6.2811 0.1140 -3.5383 -6.1208 3.8697 -11.9850 -35.6789 0.0000 0.0000 0.0000 15.7769 14.3323 -19.8714 -0.1603 -2.5798 7.1110 -0.9006 3.9796 -17.0370 -3.8253 11.9243 -35.4646 -8.4410 -3.5699 -25.8760 -0.7795 -1.6493 0.9050 3.1976 -1.2059 15.1506 -1.6336 -6.2775 -1.7527 1.8168 -7.4237 21.5042 0.4417 -2.9987 6.9805 -0.0000 -0.0000 0.0000 -84.3782 -2.1948 21.5529 12.2221 -20.1369 -2.1782 -0.0000 -0.0000 3.0559 24.0506 -12.7970 -5.6454 -7.1250 0.0000 -0.0000 -2.2363 16.0190 1.5335 -0.0000 -0.0000 0.0000 92.0044 -4.9607 13.2201 -18.6660 29.0015 -4.8678 0.0000 -0.0000 -2.0664 -18.1235 -53.6316 14.7647 7.1250 -0.0000 -0.0000 67.5009 -78.2900 -56.0666
-1.1283 17.9836 20.9825 176.6730 2.6983 -155.5160 0.0000 0.0000 0.0000 -24.3592 -13.5244 -18.9907 0.1286 2.3118 6.3680 0.1158 -3.5987 -6.1744 3.9489 -12.0920 -36.0583 0.0000 0.0000 0.0000 15.9794 14.5343 -20.0103 -0.1611 -2.5860 7.1281 -0.9092 3.9982 -17.1196 -3.6808 11.7230 -34.7592 -8.1758 -3.5400 -26.0521 -0.7269 -1.6798 0.8258 3.0968 -1.1963 15.1451 -1.4867 -6.3685 -1.7120 1.5633 -7.5069 21.5631 0.3320 -3.0443 6.9780 -0.0000 -0.0000 0.0000 -84.3712 -2.0882 21.7135 12.2960 -20.2470 -2.2036 -0.0000 -0.0000 2.8190 24.1173 -12.8677 -5.6935 -7.1250 0.0000 -0.0000 -2.1944 15.9350 1.5087 -0.0000 -0.0000 0.0000 92.0237 -4.9807 13.2439 -18.6459 28.9763 -4.8581 0.0000 -0.0000 -2.1037 -18.3283 -53.5894 14.9277 7.1250 -0.0000 -0.0000 67.2575 -78.3623 -55.9156
-1.1280 17.9859 20.9797 176.9060 2.7060 -155.3390 0.0000 0.0000 0.0000 -24.0236 -13.5709 -19.2097 0.1314 2.3363 6.4360 0.1197 -3.5086 -6.2525 3.9227 -12.0568 -35.9333 0.0000 0.0000 0.0000 16.2016 14.7399 -20.1282 -0.1603 -2.5795 7.1101 -0.9111 3.9907 -17.1386 -3.6300 11.6510 -34.5084 -7.8875 -3.4992 -26.1751 -0.6847 -1.7065 0.7148 2.9756 -1.1794 15.0744 -1.3963 -6.4677 -1.6532 1.3570 -7.6067 21.6096 0.2463 -3.0993 6.9725 0.0000 -0.0000 0.0000 -84.3524 -1.8979 21.8739 12.3964 -20.3965 -2.2385 -0.0000 -0.0000 2.5772 24.2365 -12.7956 -5.6938 -7.1250 0.0000 -0.0000 -2.1079 16.0002 1.4462 0.0000 -0.0000 0.0000 92.0823 -5.0991 13.2102 -18.6644 28.9995 -4.8671 0.0000 -0.0000 -1.9645 -18.1756 -53.7348 14.8269 7.1250 -0.0000 -0.0000 67.9855 -78.3336 -56.5642
